<?xml version="1.0" encoding="UTF-8" standalone="no"?>
<!-- Created with Inkscape (http://www.inkscape.org/) -->

<svg
   xmlns:ns0="http://www.iki.fi/pav/software/textext/"
   xmlns:dc="http://purl.org/dc/elements/1.1/"
   xmlns:cc="http://creativecommons.org/ns#"
   xmlns:rdf="http://www.w3.org/1999/02/22-rdf-syntax-ns#"
   xmlns:svg="http://www.w3.org/2000/svg"
   xmlns="http://www.w3.org/2000/svg"
   xmlns:sodipodi="http://sodipodi.sourceforge.net/DTD/sodipodi-0.dtd"
   xmlns:inkscape="http://www.inkscape.org/namespaces/inkscape"
   width="210mm"
   height="297mm"
   viewBox="0 0 744.09448819 1052.3622047"
   id="svg2"
   version="1.1"
   inkscape:version="0.91 r"
   sodipodi:docname="MeasureCover.svg"
   inkscape:export-filename="/home/my/Latex/Know/MATH/PURE/GEOMETRY/Measure/MeasureCover.png"
   inkscape:export-xdpi="90"
   inkscape:export-ydpi="90">
  <sodipodi:namedview
     id="base"
     pagecolor="#ffffff"
     bordercolor="#666666"
     borderopacity="1.0"
     inkscape:pageopacity="0.0"
     inkscape:pageshadow="2"
     inkscape:zoom="0.7"
     inkscape:cx="897.88665"
     inkscape:cy="476.32488"
     inkscape:document-units="px"
     inkscape:current-layer="layer1"
     showgrid="false"
     inkscape:window-width="1920"
     inkscape:window-height="1028"
     inkscape:window-x="0"
     inkscape:window-y="0"
     inkscape:window-maximized="1" />
  <defs
     id="defs4" />
  <metadata
     id="metadata7">
    <rdf:RDF>
      <cc:Work
         rdf:about="">
        <dc:format>image/svg+xml</dc:format>
        <dc:type
           rdf:resource="http://purl.org/dc/dcmitype/StillImage" />
        <dc:title></dc:title>
      </cc:Work>
    </rdf:RDF>
  </metadata>
  <g
     inkscape:label="Layer 1"
     inkscape:groupmode="layer"
     id="layer1">
    <g
       id="content"
       transform="matrix(40,0,0,-40,-8664.2857,29457.143)"
       xml:space="preserve"
       stroke-miterlimit="10.433"
       font-style="normal"
       font-variant="normal"
       font-weight="normal"
       font-stretch="normal"
       font-size-adjust="none"
       letter-spacing="normal"
       word-spacing="normal"
       ns0:text="$\\int_A d\\lambda$"
       ns0:preamble="/home/my/Latex/peamb.tex"
       style="font-style:normal;font-variant:normal;font-weight:normal;font-stretch:normal;letter-spacing:normal;word-spacing:normal;text-anchor:start;fill:none;fill-opacity:1;fill-rule:evenodd;stroke:#000000;stroke-linecap:butt;stroke-linejoin:miter;stroke-miterlimit:10.43299961;stroke-dasharray:none;stroke-dashoffset:0;stroke-opacity:1" />    <g
       ns0:preamble="/home/my/Latex/peamb.tex"
       ns0:text="$$\\int_A d\\lambda $$"
       word-spacing="normal"
       letter-spacing="normal"
       font-size-adjust="none"
       font-stretch="normal"
       font-weight="normal"
       font-variant="normal"
       font-style="normal"
       stroke-miterlimit="10.433"
       xml:space="preserve"
       transform="matrix(14.260347,0,0,-16.197369,-5250.4143,8249.8155)"
       id="g4168"
       style="font-style:normal;font-variant:normal;font-weight:normal;font-stretch:normal;letter-spacing:normal;word-spacing:normal;text-anchor:start;fill:none;fill-opacity:1;fill-rule:evenodd;stroke:#000000;stroke-linecap:butt;stroke-linejoin:miter;stroke-miterlimit:10.43299961;stroke-dasharray:none;stroke-dashoffset:0;stroke-opacity:1"
       inkscape:export-xdpi="90"
       inkscape:export-ydpi="90"><path
         id="path4170"
         d="m 383.98,465.57 0.03,0 0.03,0.01 0.03,0 0.02,0.01 0.03,0.01 0.03,0 0.02,0.01 0.02,0.01 0.02,0.01 0.03,0.01 0.02,0.02 0.02,0.01 0.01,0.01 0.02,0.02 0.02,0.01 0.01,0.02 0.02,0.02 0.01,0.01 0.02,0.02 0.01,0.02 0.01,0.02 0.01,0.02 0.01,0.02 0.01,0.02 0,0.02 0.01,0.02 0.01,0.03 0,0.02 0,0.02 0.01,0.02 0,0.03 0,0.02 c 0,0.33 -0.25,0.49 -0.48,0.49 -0.24,0 -0.49,-0.15 -0.49,-0.5 0,-0.51 0.5,-0.93 1.11,-0.93 1.51,0 2.08,2.33 2.78,5.21 0.77,3.14 1.42,6.31 1.95,9.5 0.37,2.11 0.74,4.1 1.08,5.38 0.12,0.49 0.46,1.77 0.84,1.77 0.31,0 0.56,-0.19 0.6,-0.23 -0.33,-0.02 -0.5,-0.24 -0.5,-0.49 0,-0.32 0.25,-0.48 0.48,-0.48 0.24,0 0.49,0.15 0.49,0.49 0,0.54 -0.54,0.93 -1.09,0.93 -0.75,0 -1.31,-1.09 -1.86,-3.11 -0.03,-0.11 -1.38,-5.1 -2.47,-11.59 -0.26,-1.52 -0.55,-3.18 -0.88,-4.56 -0.18,-0.73 -0.64,-2.6 -1.44,-2.6 -0.36,0 -0.6,0.23 -0.61,0.23 z"
         inkscape:connector-curvature="0"
         style="fill:#000000;stroke-width:0" /><path
         id="path4172"
         d="m 389.92,465.39 -0.03,-0.03 -0.02,-0.03 -0.02,-0.04 -0.02,-0.03 -0.03,-0.03 -0.02,-0.03 -0.02,-0.02 -0.03,-0.03 -0.02,-0.03 -0.02,-0.02 -0.03,-0.03 -0.02,-0.02 -0.02,-0.02 -0.03,-0.02 -0.02,-0.02 -0.03,-0.02 -0.03,-0.02 -0.02,-0.01 -0.03,-0.02 -0.03,-0.01 -0.03,-0.02 -0.02,-0.01 -0.03,-0.01 -0.03,-0.01 -0.04,-0.01 -0.03,-0.01 -0.03,-0.01 -0.04,0 -0.03,-0.01 -0.04,0 -0.03,-0.01 -0.04,0 c -0.07,-0.01 -0.16,-0.01 -0.16,-0.15 0,-0.07 0.06,-0.1 0.1,-0.1 0.18,0 0.41,0.03 0.6,0.03 0.22,0 0.5,-0.03 0.71,-0.03 0.04,0 0.14,0 0.14,0.15 0,0.09 -0.09,0.1 -0.12,0.1 -0.05,0.01 -0.3,0.02 -0.3,0.21 0,0.08 0.07,0.2 0.1,0.26 l 0.56,0.86 1.99,0 -0.03,0.26 -1.79,0 1.46,2.27 0.33,-2.27 0.03,-0.26 0.17,-1.15 c -0.03,-0.07 -0.07,-0.18 -0.48,-0.18 -0.09,0 -0.18,0 -0.18,-0.15 0,-0.03 0.02,-0.1 0.11,-0.1 0.2,0 0.69,0.03 0.9,0.03 0.12,0 0.28,-0.01 0.41,-0.01 0.12,-0.01 0.27,-0.02 0.39,-0.02 0.09,0 0.14,0.06 0.14,0.15 0,0.1 -0.08,0.1 -0.19,0.1 -0.41,0 -0.42,0.06 -0.44,0.22 l -0.61,4.29 c -0.02,0.15 -0.04,0.2 -0.17,0.2 -0.13,0 -0.17,-0.07 -0.24,-0.16 z"
         inkscape:connector-curvature="0"
         style="fill:#000000;stroke-width:0" /><path
         id="path4174"
         d="m 401.77,480.42 0,0 0,0 0,0.01 0,0 0,0 0,0 0,0.01 -0.01,0 0,0 0,0.01 0,0 0,0.01 0,0 0,0.01 0,0 -0.01,0.01 0,0 0,0.01 -0.01,0 0,0.01 -0.01,0 0,0 0,0 0,0.01 -0.01,0 0,0 0,0 -0.01,0 0,0.01 0,0 -0.01,0 0,0 0,0 -0.01,0 0,0.01 -0.01,0 0,0 -0.01,0 0,0 -0.01,0 0,0 -0.01,0 0,0 -0.01,0 0,0 c -0.15,0 -1.1,-0.09 -1.27,-0.11 -0.08,-0.01 -0.14,-0.06 -0.14,-0.19 0,-0.12 0.09,-0.12 0.24,-0.12 0.48,0 0.5,-0.06 0.5,-0.16 l -0.03,-0.2 -0.6,-2.36 c -0.18,0.37 -0.46,0.64 -0.91,0.64 -1.17,0 -2.4,-1.46 -2.4,-2.91 0,-0.94 0.55,-1.59 1.32,-1.59 l 0.02,0.22 c -0.49,0 -0.63,0.54 -0.63,0.93 0,0.5 0.31,1.72 0.54,2.18 0.31,0.58 0.76,0.95 1.16,0.95 0.64,0 0.78,-0.81 0.78,-0.87 0,-0.06 -0.02,-0.12 -0.03,-0.17 l -0.49,-1.95 c -0.05,-0.18 -0.05,-0.2 -0.2,-0.37 -0.44,-0.54 -0.85,-0.7 -1.13,-0.7 l -0.02,-0.22 c 0.2,0 0.7,0.04 1.3,0.74 0.08,-0.41 0.42,-0.74 0.9,-0.74 0.35,0 0.58,0.23 0.74,0.55 0.17,0.35 0.3,0.96 0.3,0.98 0,0.1 -0.09,0.1 -0.12,0.1 -0.1,0 -0.11,-0.04 -0.14,-0.18 -0.17,-0.65 -0.35,-1.23 -0.76,-1.23 -0.27,0 -0.3,0.26 -0.3,0.45 0,0.24 0.02,0.31 0.06,0.48 z"
         inkscape:connector-curvature="0"
         style="fill:#000000;stroke-width:0" /><path
         id="path4176"
         d="m 405.37,476.54 0.04,-0.1 0.04,-0.1 0.07,-0.21 0.08,-0.22 0.08,-0.22 0.08,-0.21 0.08,-0.22 0.07,-0.22 0.04,-0.1 0.03,-0.1 0.04,-0.1 0.03,-0.1 0.04,-0.09 0.03,-0.09 0.03,-0.09 0.03,-0.08 0.03,-0.08 0.03,-0.08 0.03,-0.07 0.02,-0.06 0.03,-0.06 0.02,-0.05 0.02,-0.05 0.02,-0.04 0.02,-0.03 0.01,-0.02 c 0.16,-0.22 0.26,-0.22 0.53,-0.22 l 0.22,0 c 0.1,0.01 0.11,0.07 0.11,0.1 0,0.03 -0.02,0.05 -0.05,0.09 -0.1,0.11 -0.16,0.26 -0.23,0.45 l -2.03,5.66 c -0.21,0.57 -0.75,0.7 -1.21,0.7 -0.05,0 -0.18,0 -0.18,-0.11 0,-0.08 0.08,-0.1 0.09,-0.1 0.33,-0.06 0.4,-0.12 0.64,-0.79 l 0.97,-2.7 -2.75,-2.72 c -0.12,-0.12 -0.17,-0.18 -0.17,-0.31 0,-0.17 0.13,-0.29 0.29,-0.29 0.16,0 0.25,0.11 0.33,0.21 z"
         inkscape:connector-curvature="0"
         style="fill:#000000;stroke-width:0" /></g>    <rect
       style="fill:#0000ff;fill-rule:evenodd;stroke:#000000;stroke-width:1px;stroke-linecap:butt;stroke-linejoin:miter;stroke-opacity:0;fill-opacity:0"
       id="rect4210"
       width="515.71429"
       height="640"
       x="135.71428"
       y="199.50504" />
  </g>
</svg>
